# xmcd CD database file
#
# Track frame offsets:
#	150
#	8995
#	34252
#	43105
#
# Disc length: 910 seconds
#
# Revision: 0
# Processed by: cddbd v1.5.1PL0 Copyright (c) Steve Scherf et al.
# Submitted via: CDex 1.51
#
DISCID=2c038c04
DTITLE=SALIA - キューティーハニー
DYEAR=1997
DGENRE=Anime
TTITLE0=キューティーハニー
TTITLE1=あなたに届けたい
TTITLE2=キューティーハニー(KARAOKE)
TTITLE3=あなたに届けたい(KARAOKE)
EXTD=YEAR: 1997
EXTT0=
EXTT1=
EXTT2=
EXTT3=
PLAYORDER=
